<svg width="197" height="47" viewBox="0 0 197 47" fill="none" xmlns="http://www.w3.org/2000/svg">
<path d="M0.64 36V0.959999H7.84V36H0.64ZM33.6528 33.024C31.1888 35.456 28.1808 36.672 24.6288 36.672C21.0768 36.672 18.0688 35.456 15.6048 33.024C13.1408 30.56 11.9088 27.552 11.9088 24C11.9088 20.448 13.1408 17.456 15.6048 15.024C18.0688 12.56 21.0768 11.328 24.6288 11.328C28.1808 11.328 31.1888 12.56 33.6528 15.024C36.1168 17.456 37.3488 20.448 37.3488 24C37.3488 27.552 36.1168 30.56 33.6528 33.024ZM20.6928 28.08C21.7488 29.136 23.0608 29.664 24.6288 29.664C26.1968 29.664 27.5088 29.136 28.5648 28.08C29.6208 27.024 30.1488 25.664 30.1488 24C30.1488 22.336 29.6208 20.976 28.5648 19.92C27.5088 18.864 26.1968 18.336 24.6288 18.336C23.0608 18.336 21.7488 18.864 20.6928 19.92C19.6368 20.976 19.1088 22.336 19.1088 24C19.1088 25.664 19.6368 27.024 20.6928 28.08ZM59.0373 12H66.0453V34.8C66.0453 38.576 64.8133 41.424 62.3493 43.344C59.8853 45.296 56.8933 46.272 53.3733 46.272C47.9653 46.272 44.1733 44.336 41.9973 40.464L48.1413 36.912C49.2293 38.928 51.0533 39.936 53.6133 39.936C55.3093 39.936 56.6373 39.488 57.5973 38.592C58.5573 37.728 59.0373 36.464 59.0373 34.8V32.592C57.3733 34.672 55.0373 35.712 52.0293 35.712C48.6693 35.712 45.8533 34.528 43.5813 32.16C41.3413 29.76 40.2213 26.88 40.2213 23.52C40.2213 20.16 41.3413 17.296 43.5813 14.928C45.8533 12.528 48.6693 11.328 52.0293 11.328C55.0373 11.328 57.3733 12.368 59.0373 14.448V12ZM49.0533 27.552C50.1413 28.576 51.5333 29.088 53.2293 29.088C54.9253 29.088 56.3173 28.576 57.4053 27.552C58.4933 26.528 59.0373 25.184 59.0373 23.52C59.0373 21.856 58.4933 20.512 57.4053 19.488C56.3173 18.464 54.9253 17.952 53.2293 17.952C51.5333 17.952 50.1413 18.464 49.0533 19.488C47.9653 20.512 47.4213 21.856 47.4213 23.52C47.4213 25.184 47.9653 26.528 49.0533 27.552ZM91.8715 33.024C89.4075 35.456 86.3995 36.672 82.8475 36.672C79.2955 36.672 76.2875 35.456 73.8235 33.024C71.3595 30.56 70.1275 27.552 70.1275 24C70.1275 20.448 71.3595 17.456 73.8235 15.024C76.2875 12.56 79.2955 11.328 82.8475 11.328C86.3995 11.328 89.4075 12.56 91.8715 15.024C94.3355 17.456 95.5675 20.448 95.5675 24C95.5675 27.552 94.3355 30.56 91.8715 33.024ZM78.9115 28.08C79.9675 29.136 81.2795 29.664 82.8475 29.664C84.4155 29.664 85.7275 29.136 86.7835 28.08C87.8395 27.024 88.3675 25.664 88.3675 24C88.3675 22.336 87.8395 20.976 86.7835 19.92C85.7275 18.864 84.4155 18.336 82.8475 18.336C81.2795 18.336 79.9675 18.864 78.9115 19.92C77.8555 20.976 77.3275 22.336 77.3275 24C77.3275 25.664 77.8555 27.024 78.9115 28.08ZM113.235 18.912H108.291V27.408C108.291 28.368 108.675 28.976 109.443 29.232C110.211 29.488 111.475 29.568 113.235 29.472V36C108.659 36.48 105.491 36.048 103.731 34.704C101.971 33.328 101.091 30.896 101.091 27.408V18.912H97.2513V12H101.091V7.44L108.291 5.28V12H113.235V18.912ZM132.901 12H140.581L132.373 35.28C131.029 39.056 129.253 41.76 127.045 43.392C124.869 45.024 122.085 45.76 118.693 45.6V38.88C120.357 38.88 121.637 38.576 122.533 37.968C123.429 37.392 124.149 36.368 124.693 34.896L115.141 12H123.061L128.389 26.688L132.901 12ZM157.586 11.328C160.754 11.328 163.458 12.56 165.698 15.024C167.938 17.456 169.058 20.448 169.058 24C169.058 27.552 167.938 30.56 165.698 33.024C163.458 35.456 160.754 36.672 157.586 36.672C154.514 36.672 152.13 35.696 150.434 33.744V45.6H143.234V12H150.434V14.256C152.13 12.304 154.514 11.328 157.586 11.328ZM152.018 28.272C153.106 29.328 154.482 29.856 156.146 29.856C157.81 29.856 159.17 29.328 160.226 28.272C161.314 27.216 161.858 25.792 161.858 24C161.858 22.208 161.314 20.784 160.226 19.728C159.17 18.672 157.81 18.144 156.146 18.144C154.482 18.144 153.106 18.672 152.018 19.728C150.962 20.784 150.434 22.208 150.434 24C150.434 25.792 150.962 27.216 152.018 28.272ZM179.572 26.88C180.404 29.12 182.324 30.24 185.332 30.24C187.284 30.24 188.82 29.632 189.94 28.416L195.7 31.728C193.332 35.024 189.844 36.672 185.236 36.672C181.204 36.672 177.972 35.472 175.54 33.072C173.14 30.672 171.94 27.648 171.94 24C171.94 20.384 173.124 17.376 175.492 14.976C177.892 12.544 180.964 11.328 184.708 11.328C188.196 11.328 191.092 12.544 193.396 14.976C195.732 17.376 196.9 20.384 196.9 24C196.9 25.024 196.804 25.984 196.612 26.88H179.572ZM179.428 21.504H189.748C189.044 18.976 187.348 17.712 184.66 17.712C181.876 17.712 180.132 18.976 179.428 21.504Z" fill="white"/>
</svg>
