<svg width="281" height="59" viewBox="0 0 281 59" fill="none" xmlns="http://www.w3.org/2000/svg">
<path d="M0 42.7258V34.7688L10.704 11.1129H20.3768L8.256 34.7688H11V42.7258H0Z" fill="url(#paint0_linear_203_110)"/>
<path d="M13.0988 42.7258V34.7688L25.088 11.1129H34.3353L22.3461 34.7688H25.4195V42.7258H13.0988Z" fill="url(#paint1_linear_203_110)"/>
<path d="M56.6675 34.7688V42.7258H52.9041V48.7473H44.1944V42.7258H27.0977V34.7688L39.0869 11.1129H48.3342L36.345 34.7688H44.1944V26.7043H52.9041V34.7688H56.6675Z" fill="white"/>
<path d="M73.0696 49.5C68.9836 49.5 65.5786 48.138 62.8545 45.414C60.1664 42.69 58.8223 39.3208 58.8223 35.3065C58.8223 31.2921 60.1664 27.9229 62.8545 25.1989C65.5786 22.4749 68.9836 21.1129 73.0696 21.1129C75.6502 21.1129 78.0158 21.7401 80.1664 22.9946C82.3527 24.2491 84.0373 25.9158 85.2201 27.9946L78.1771 32.0806C77.2094 30.0735 75.471 29.0699 72.9621 29.0699C71.2058 29.0699 69.7542 29.6613 68.6072 30.8441C67.4603 31.991 66.8868 33.4785 66.8868 35.3065C66.8868 37.1344 67.4603 38.6398 68.6072 39.8226C69.7542 40.9695 71.2058 41.543 72.9621 41.543C75.5069 41.543 77.2452 40.5394 78.1771 38.5323L85.2201 42.5645C84.0373 44.6792 82.3707 46.3638 80.2201 47.6183C78.0696 48.8728 75.6861 49.5 73.0696 49.5Z" fill="white"/>
<path d="M95.145 38.5323C96.0769 41.0412 98.2274 42.2957 101.597 42.2957C103.783 42.2957 105.503 41.6147 106.758 40.2527L113.209 43.9624C110.557 47.6541 106.65 49.5 101.489 49.5C96.9729 49.5 93.3528 48.1559 90.6288 45.4677C87.9407 42.7796 86.5966 39.3925 86.5966 35.3065C86.5966 31.2563 87.9227 27.8871 90.5751 25.1989C93.2632 22.4749 96.7041 21.1129 100.898 21.1129C104.804 21.1129 108.048 22.4749 110.629 25.1989C113.245 27.8871 114.554 31.2563 114.554 35.3065C114.554 36.4534 114.446 37.5287 114.231 38.5323H95.145ZM94.9837 32.5108H106.543C105.754 29.6792 103.855 28.2634 100.844 28.2634C97.7256 28.2634 95.7722 29.6792 94.9837 32.5108Z" fill="white"/>
<path d="M142.246 19.3925H127.999V26.6505H141.977V34.9301H127.999V48.7473H119.396V11.1129H142.246V19.3925Z" fill="white"/>
<path d="M164.425 21.8656H172.49V48.7473H164.425V46.2204C162.812 48.4068 160.249 49.5 156.737 49.5C153.869 49.5 151.468 48.5143 149.533 46.543C147.633 44.5717 146.683 41.8477 146.683 38.371V21.8656H154.748V37.1882C154.748 38.7652 155.178 39.9839 156.038 40.8441C156.934 41.6685 158.063 42.0806 159.425 42.0806C160.966 42.0806 162.185 41.6147 163.081 40.6828C163.977 39.7509 164.425 38.371 164.425 36.543V21.8656Z" fill="white"/>
<path d="M194.157 21.1129C197.024 21.1129 199.408 22.0986 201.307 24.0699C203.243 26.0412 204.21 28.7652 204.21 32.2419V48.7473H196.146V33.4247C196.146 31.8477 195.698 30.647 194.802 29.8226C193.942 28.9624 192.83 28.5323 191.468 28.5323C189.927 28.5323 188.709 28.9982 187.813 29.9301C186.916 30.862 186.468 32.2419 186.468 34.0699V48.7473H178.404V21.8656H186.468V24.3925C188.081 22.2061 190.644 21.1129 194.157 21.1129Z" fill="white"/>
<path d="M225.501 21.1129C228.369 21.1129 230.752 22.0986 232.652 24.0699C234.587 26.0412 235.555 28.7652 235.555 32.2419V48.7473H227.49V33.4247C227.49 31.8477 227.042 30.647 226.146 29.8226C225.286 28.9624 224.175 28.5323 222.813 28.5323C221.272 28.5323 220.053 28.9982 219.157 29.9301C218.261 30.862 217.813 32.2419 217.813 34.0699V48.7473H209.748V21.8656H217.813V24.3925C219.426 22.2061 221.989 21.1129 225.501 21.1129Z" fill="white"/>
<path d="M248.297 38.5323C249.229 41.0412 251.38 42.2957 254.749 42.2957C256.935 42.2957 258.656 41.6147 259.91 40.2527L266.362 43.9624C263.709 47.6541 259.803 49.5 254.641 49.5C250.125 49.5 246.505 48.1559 243.781 45.4677C241.093 42.7796 239.749 39.3925 239.749 35.3065C239.749 31.2563 241.075 27.8871 243.727 25.1989C246.416 22.4749 249.856 21.1129 254.05 21.1129C257.957 21.1129 261.2 22.4749 263.781 25.1989C266.398 27.8871 267.706 31.2563 267.706 35.3065C267.706 36.4534 267.598 37.5287 267.383 38.5323H248.297ZM248.136 32.5108H259.695C258.907 29.6792 257.007 28.2634 253.996 28.2634C250.878 28.2634 248.924 29.6792 248.136 32.5108Z" fill="white"/>
<path d="M272.28 48.7473V9.5H280.344V48.7473H272.28Z" fill="white"/>
<defs>
<linearGradient id="paint0_linear_203_110" x1="-1.81052e-06" y1="49.5" x2="197.074" y2="-100.155" gradientUnits="userSpaceOnUse">
<stop stop-color="#DF2523"/>
<stop offset="1" stop-color="#F08A31"/>
</linearGradient>
<linearGradient id="paint1_linear_203_110" x1="-1.81052e-06" y1="49.5" x2="197.074" y2="-100.155" gradientUnits="userSpaceOnUse">
<stop stop-color="#DF2523"/>
<stop offset="1" stop-color="#F08A31"/>
</linearGradient>
</defs>
</svg>
