<svg width="653" height="428" viewBox="0 0 653 428" fill="none" xmlns="http://www.w3.org/2000/svg">
<path fill-rule="evenodd" clip-rule="evenodd" d="M438 58H341C337.686 58 335 55.3137 335 52V46H432C435.314 46 438 48.6863 438 52V58ZM440 58V52C440 47.5817 436.418 44 432 44H335V8C335 4.68629 337.686 2 341 2H645C648.314 2 651 4.68629 651 8V52C651 55.3137 648.314 58 645 58H440ZM440 60H645C649.418 60 653 56.4183 653 52V8C653 3.58172 649.418 0 645 0H341C336.582 0 333 3.58172 333 8V44H25C20.5817 44 17 47.5817 17 52V96C17 100.418 20.5817 104 25 104H202V140H80C75.5817 140 72 143.582 72 148V192C72 196.418 75.5817 200 80 200H209V244C209 248.418 212.582 252 217 252H521C525.418 252 529 248.418 529 244V200C529 195.582 525.418 192 521 192H392V156H514C518.418 156 522 152.418 522 148V104C522 99.5817 518.418 96 514 96H440V60ZM438 60H341C336.582 60 333 56.4183 333 52V46H25C21.6863 46 19 48.6863 19 52V96C19 99.3137 21.6863 102 25 102H202.252C203.14 98.5495 206.272 96 210 96H438V60ZM514 154H392V148C392 143.582 388.418 140 384 140H204V104H432C435.728 104 438.86 101.45 439.748 98H514C517.314 98 520 100.686 520 104V148C520 151.314 517.314 154 514 154ZM384 142H204V148C204 151.314 206.686 154 210 154H390V148C390 144.686 387.314 142 384 142ZM202 148V142H80C76.6863 142 74 144.686 74 148V192C74 195.314 76.6863 198 80 198H209.252C210.14 194.55 213.272 192 217 192H390V156H210C205.582 156 202 152.418 202 148ZM211 244V200H384C387.728 200 390.86 197.45 391.748 194H521C524.314 194 527 196.686 527 200V244C527 247.314 524.314 250 521 250H217C213.686 250 211 247.314 211 244ZM384 198C386.612 198 388.835 196.33 389.659 194H217C214.388 194 212.165 195.67 211.341 198H384ZM437.659 98C436.835 100.33 434.612 102 432 102H204.341C205.165 99.6696 207.388 98 210 98H437.659ZM76 316H245V296C245 291.582 248.582 288 253 288H386V266C386 262.686 383.314 260 380 260H76C72.6863 260 70 262.686 70 266V310C70 313.314 72.6863 316 76 316ZM76 318H245V330H8C3.58173 330 0 333.582 0 338V382C0 386.418 3.58173 390 8 390H95V420C95 424.418 98.5817 428 103 428H407C411.418 428 415 424.418 415 420V376C415 371.582 411.418 368 407 368H320V348H478C482.418 348 486 344.418 486 340V296C486 291.582 482.418 288 478 288H388V266C388 261.582 384.418 258 380 258H76C71.5817 258 68 261.582 68 266V310C68 314.418 71.5817 318 76 318ZM478 290H388V310C388 314.418 384.418 318 380 318H247V330H312C316.418 330 320 333.582 320 338V346H478C481.314 346 484 343.314 484 340V296C484 292.686 481.314 290 478 290ZM386 310V290H253C249.686 290 247 292.686 247 296V316H380C383.314 316 386 313.314 386 310ZM318 346H253C249.686 346 247 343.314 247 340V332H312C315.314 332 318 334.686 318 338V346ZM318 348H253C248.582 348 245 344.418 245 340V332H8C4.68628 332 2 334.686 2 338V382C2 385.314 4.68628 388 8 388H95V376C95 371.582 98.5817 368 103 368H318V348ZM407 370H320V382C320 386.418 316.418 390 312 390H97V420C97 423.314 99.6863 426 103 426H407C410.314 426 413 423.314 413 420V376C413 372.686 410.314 370 407 370ZM312 388C315.314 388 318 385.314 318 382V370H103C99.6863 370 97 372.686 97 376V388H312Z" fill="url(#paint0_linear_139_57)"/>
<defs>
<linearGradient id="paint0_linear_139_57" x1="-35" y1="428" x2="1020.55" y2="226.701" gradientUnits="userSpaceOnUse">
<stop stop-color="white"/>
<stop offset="1" stop-color="#E13325"/>
</linearGradient>
</defs>
</svg>
