<svg width="376" height="106" viewBox="0 0 376 106" fill="none" xmlns="http://www.w3.org/2000/svg">
<path fill-rule="evenodd" clip-rule="evenodd" d="M8 2H312C315.314 2 318 4.68629 318 8V46H64C59.5817 46 56 49.5817 56 54V58H7.99999C4.68629 58 2 55.3137 2 52V8C2 4.68629 4.68629 2 8 2ZM56 60H7.99999C3.58171 60 0 56.4183 0 52V8C0 3.58172 3.58172 0 8 0H312C316.418 0 320 3.58172 320 8V46H368C372.418 46 376 49.5817 376 54V98C376 102.418 372.418 106 368 106H64C59.5817 106 56 102.418 56 98V60ZM320 48H368C371.314 48 374 50.6863 374 54V98C374 101.314 371.314 104 368 104H64C60.6863 104 58 101.314 58 98V60H312C316.418 60 320 56.4183 320 52V48ZM318 48V52C318 55.3137 315.314 58 312 58H58V54C58 50.6863 60.6863 48 64 48H318Z" fill="url(#paint0_linear_139_58)"/>
<defs>
<linearGradient id="paint0_linear_139_58" x1="9.13963e-07" y1="106" x2="507.905" y2="-107.738" gradientUnits="userSpaceOnUse">
<stop stop-color="white"/>
<stop offset="1" stop-color="#E13325"/>
</linearGradient>
</defs>
</svg>
