<svg width="61" height="17" viewBox="0 0 61 17" fill="none" xmlns="http://www.w3.org/2000/svg">
<g clip-path="url(#clip0_129_903)">
<path d="M50.1814 6.72157C48.2645 5.60112 46.8016 4.73532 45.3891 3.92045C44.8846 3.61488 44.3802 3.36024 43.9262 3.00373C43.2704 2.54537 42.3624 2.03607 42.8668 1.06841C43.3713 0.15168 44.3297 0.559115 45.036 0.813762C45.7927 1.01748 46.5493 1.42492 47.2556 1.78142C50.5345 3.36023 53.8134 4.98997 57.0419 6.61971C57.8995 7.07807 58.8075 7.48551 59.5642 8.09666C61.1785 9.31897 61.0776 10.5413 59.312 11.458C56.9411 12.6803 54.5197 13.8007 52.0983 14.9212C51.0894 15.4305 50.0301 15.9398 48.9707 16.2963C48.3654 16.5 47.6591 16.4491 47.0033 16.5C46.8016 15.074 47.6087 14.7684 48.3149 14.4119C50.0805 13.4442 51.8965 12.5275 53.6621 11.5599C54.2675 11.2033 54.9232 10.8468 55.5286 10.032C54.6206 9.93011 53.763 9.77733 52.855 9.7264C46.0449 9.36989 39.2852 9.01339 32.4751 8.65688C22.5879 8.14759 12.751 7.6383 2.86378 7.07808C2.05666 7.02715 1.24953 6.72157 0.291073 6.46692C1.19909 5.09183 2.25844 5.3974 3.11601 5.44833C7.95875 5.55019 12.8519 5.75391 17.6947 5.9067C28.1368 6.26321 38.579 6.61971 49.0212 6.97621C49.2734 6.92528 49.4247 6.87435 50.1814 6.72157Z" fill="white"/>
</g>
<defs>
<clipPath id="clip0_129_903">
<rect width="60.4179" height="16" fill="white" transform="matrix(-1 0 0 -1 60.709 16.5)"/>
</clipPath>
</defs>
</svg>
